<svg width="40" height="40" viewBox="0 0 40 40" fill="none" xmlns="http://www.w3.org/2000/svg">
<g id="Group">
<path id="Vector" d="M2.01196 29.9868V4.01776C2.01196 3.48733 2.22268 2.97862 2.59775 2.60355C2.97282 2.22848 3.48153 2.01776 4.01196 2.01776H36C36.5304 2.01776 37.0391 2.22848 37.4142 2.60355C37.7892 2.97862 38 3.48733 38 4.01776V29.9868C38 30.7824 37.6839 31.5455 37.1213 32.1081C36.5587 32.6707 35.7956 32.9868 35 32.9868H33.005V33.9818C33.005 35.0426 32.5835 36.06 31.8334 36.8102C31.0832 37.5603 30.0658 37.9818 29.005 37.9818C27.9441 37.9818 26.9267 37.5603 26.1765 36.8102C25.4264 36.06 25.005 35.0426 25.005 33.9818V32.9868H15.008V33.9838C15.008 35.0442 14.5867 36.0613 13.8368 36.8111C13.087 37.561 12.0699 37.9823 11.0095 37.9823C9.94899 37.9823 8.93196 37.561 8.1821 36.8111C7.43223 36.0613 7.01096 35.0442 7.01096 33.9838V32.9868H5.01196C4.21631 32.9868 3.45325 32.6707 2.89064 32.1081C2.32803 31.5455 2.01196 30.7824 2.01196 29.9868Z" stroke="#699BF7" stroke-width="4" stroke-linejoin="round"/>
<path id="Vector_2" d="M38 18.9818H2M10 25.9818H12M28 25.9818H30M30 8.98175H10V18.9818H30V8.98175Z" stroke="#699BF7" stroke-width="4" stroke-linecap="round" stroke-linejoin="round"/>
</g>
</svg>
